PathFileType	4	(X/Y/Z)	Patient4_TMGait_0pt2_01_left_23.trc.trc
DataRate	CameraRate	NumFrames	NumMarkers	Units	OrigDataRate	OrigDataStartFrame	OrigNumFrames
44.025157232704	44.025157232704	6	33	mm	44.025157232704	106	       141
Frame#	Time	Sacral			L.Shoulder			Chest			R.Shoulder			Neck			R.ASIS			L.ASIS			R.Thigh.Superior			R.Thigh.Lateral			R.Thigh.Inferior			R.Patella			L.Thigh.Superior			L.Thigh.Lateral			L.Thigh.Inferior			L.Patella			L.Shank.Superior			L.Shank.Lateral			L.Shank.Inferior			R.Shank.Superior			R.Shank.Lateral			R.Shank.Inferior			R.Heel			R.Midfoot.Superior			R.Midfoot.Lateral			R.Toe			L.Heel			L.Midfoot.Lateral			L.Midfoot.Superior			L.Toe			L.Elbow			L.Wrist			R.Elbow			R.Wrist			
		X1	Y1	Z1	X2	Y2	Z2	X3	Y3	Z3	X4	Y4	Z4	X5	Y5	Z5	X6	Y6	Z6	X7	Y7	Z7	X8	Y8	Z8	X9	Y9	Z9	X10	Y10	Z10	X11	Y11	Z11	X12	Y12	Z12	X13	Y13	Z13	X14	Y14	Z14	X15	Y15	Z15	X16	Y16	Z16	X17	Y17	Z17	X18	Y18	Z18	X19	Y19	Z19	X20	Y20	Z20	X21	Y21	Z21	X22	Y22	Z22	X23	Y23	Z23	X24	Y24	Z24	X25	Y25	Z25	X26	Y26	Z26	X27	Y27	Z27	X28	Y28	Z28	X29	Y29	Z29	X30	Y30	Z30	X31	Y31	Z31	X32	Y32	Z32	X33	Y33	Z33	

106	55.055000000000	874.667279828621	985.156834376393	595.592799957073	1019.559248499652	1407.134994009539	369.484123812713	1148.857188081079	1343.135375389846	511.785898169689	1100.634398432215	1419.826140671874	697.104392963985	1028.708273243983	1474.857658512107	525.013358367094	1123.229563713749	922.629034092616	667.524492379686	1057.908719637140	941.098065553944	401.729603754648	1170.836586915706	729.375940502467	615.208350468981	1110.421602667385	608.344683021540	677.161100627802	1175.384440882624	567.662155001391	580.156152564012	1181.351622275716	470.158319663186	581.113592436342	1148.127163359588	760.837175098540	416.968951841537	1095.833053619449	636.026816957096	338.247662210327	1204.009231756211	571.168756462201	389.241523208912	1213.257450935800	481.123476626371	372.622052781790	1141.814167389772	417.913392342399	364.020733075360	993.724394499374	386.545538757775	325.947028397096	980.272992623483	252.040453923286	366.680660735108	1133.245673770192	383.543278106090	590.044825557694	1051.653957802784	290.942523373039	656.727870514914	1063.914047342601	194.497177808452	587.781043357842	899.942962971970	45.504964439621	570.949099357752	1073.347145406166	95.538227433072	595.689484030372	987.181755300956	37.976772477309	640.231090391127	1194.705093946750	41.226460164671	618.190296734669	791.705202822782	194.149218909474	416.447322210964	837.495773105852	151.409256860442	328.104448565318	944.700690748057	151.579361962898	338.812413922323	1011.416555996430	37.960312206982	294.725372731990	915.365587888171	1060.408150114493	289.128015948060	916.291138712588	799.205424279270	300.246231383491	1152.514467257126	1072.154070284257	825.921084989965	1300.334370141040	862.144645498274	787.968774954485	
107	55.077714285714	873.596599619245	984.643710945353	599.508916510037	1014.917307145749	1406.993636754909	371.634801035306	1146.818564927574	1342.656563411467	511.342927947176	1102.153636111735	1419.167234245692	697.679779901580	1027.098611827149	1474.282254156207	526.991873230641	1123.151613689517	921.897550017642	667.430323534250	1053.961454125378	940.907181804045	402.668988350112	1169.842506740781	728.424776354623	614.840265623844	1109.798542758659	607.448999239961	677.176087419050	1173.721115744904	566.829692279083	579.394212246543	1179.404930937444	469.180463363024	580.141051428517	1146.701134168827	763.181407401979	418.568078773669	1096.631847277056	637.414447959139	340.019962921839	1205.784358225836	574.390694792419	391.291988229568	1216.836253006418	484.723382504356	374.282957219428	1147.048109196260	420.173386815041	365.186863304837	999.775964427624	384.571341113200	328.875473658888	991.670020557793	249.488248517541	368.014183727257	1130.785027631029	382.678336704355	589.464025423449	1049.028240890513	290.462398519071	656.622835188637	1060.222405861320	194.032940191712	587.547935088153	895.445221551920	45.530199593523	571.065504310325	1068.822145331439	95.471457123861	595.634198418950	982.660739591112	37.956083194666	640.321057963863	1190.192664161319	41.088117388040	618.184891910495	806.693075841197	183.177984601176	420.175263192077	852.369180262853	145.354736716772	329.631776515401	959.241235907128	149.687068030919	338.755775043129	1029.543853590364	40.077965081742	289.777836214730	901.581138123452	1063.184462584388	294.928135929515	892.375390173546	802.352392132750	311.504803257435	1168.927896319882	1073.598002676410	824.944884063662	1332.134858150276	877.273866076617	779.176738291888	
108	55.100428571429	872.652703903776	985.104588449057	603.142239668710	1010.319556129181	1407.761844181670	373.586471442886	1144.803131875382	1343.051834654607	510.597025982773	1103.756637659084	1419.414276316498	697.860080413262	1025.499280067774	1474.522595328600	528.762347367143	1123.018764948313	921.873216656668	666.973580343499	1049.948865818644	941.579142741892	403.293327839038	1167.975122516317	727.796163360418	614.404766735882	1107.854698448952	607.198154455344	677.386229236044	1170.543529007540	566.289701361257	578.934828494050	1175.677106158476	468.742448308753	579.625234070658	1144.257168138576	765.619106820832	419.580297269323	1095.489419409852	639.079804714902	341.448016385258	1205.306600182312	577.482375900385	392.683382462010	1218.066092763642	488.599633913563	375.473927957155	1150.634100174547	422.636360137901	365.939650635183	1005.092176798574	381.194823968069	330.837029261811	1003.728730302124	245.761050059932	368.562034714770	1126.907020142091	382.358202848435	589.283031661333	1045.310725161421	290.210910626911	656.827288870387	1055.925018294234	193.874836007703	587.543911317840	890.897795289954	45.495704930950	571.182268413834	1064.249239275202	95.432213633804	595.666349679640	978.097492232763	37.911118323364	640.438776140733	1185.635741406192	41.023109861602	618.182817979409	823.366232775761	169.132739958620	422.367338216319	869.598673579916	136.548478364818	330.060494924375	975.754787069123	146.346485094969	338.054819177965	1050.931781119916	42.140047642410	285.062386785656	888.516966686106	1067.007281445681	300.512400361852	870.887658536765	807.018908522126	322.623035238837	1184.740293225061	1076.591313910933	823.246088659018	1362.103936422415	895.484118558893	769.067865965059	
109	55.123142857143	871.799073833784	986.532394713175	606.461358032818	1005.849152332277	1409.387807467153	375.318071480043	1142.863269372018	1344.250687760680	509.554632913742	1105.485552153602	1420.528727318477	697.633804036480	1023.965172043099	1475.547289556522	530.290127431527	1122.776940956793	922.512872120422	666.199378485085	1045.885640904738	943.087789434450	403.619704458178	1165.218809652046	727.489960737759	613.932962929795	1104.593499871015	607.574373681540	677.805599066864	1165.881926563586	566.046180532919	578.804036745363	1170.221919672011	468.838752389932	579.591442820746	1140.887300355852	768.128591897984	420.052451485460	1092.566362609310	640.985520336958	342.502769612649	1202.738276741120	580.390867146112	393.436028030950	1217.105377783291	492.690260558906	376.212068957398	1152.677994411836	425.295746298203	366.289406121796	1009.870408072278	376.675113624194	331.657582779295	1016.352892196700	241.250762160343	368.251268634862	1121.649869108413	382.578711476553	589.519685085724	1040.517237224525	290.188224457687	657.338227828571	1051.036741305688	194.018373610203	587.768760681966	886.296979055872	45.404385219518	571.294635453112	1059.633268344403	95.424461845075	595.790366508976	973.491329019124	37.844068979544	640.579224613147	1181.033437476016	41.028490430601	618.183628103158	841.579964602536	153.020248715988	422.753197218106	889.007683099758	125.699247075470	329.251928054766	994.012874548829	141.937476804839	336.689787564511	1075.031493232186	44.157710017740	280.863345678842	876.317988663508	1071.706107004977	305.959676643328	851.760138488921	812.839644895839	333.496640777006	1199.968384032421	1081.052266812210	820.832174540948	1389.886013660964	916.423768862510	757.785938559220	
110	55.145857142857	870.984306759869	988.821004989924	609.416421309291	1001.586220757305	1411.733791238192	376.803507580885	1141.039141285330	1346.099421988548	508.233284586883	1107.349668708137	1422.382282839439	697.002705599011	1022.539449287044	1477.244894334777	531.534676499483	1122.369677910464	923.704158898719	665.157281823746	1041.803336327254	945.320939371800	403.664504007475	1161.623154087486	727.468104455585	613.450464677166	1100.112061201792	608.501507453936	678.417166850848	1159.882073216568	566.071000325225	578.994047606859	1163.226922199141	469.415651870425	580.015899585940	1136.716962147732	770.637186252716	420.049247738901	1088.094812372262	643.052741717757	343.169292517921	1198.323937147175	583.042659908254	393.612956881204	1214.194068230307	496.893805834488	376.554967129620	1153.328561452284	428.115677947920	366.277459906935	1014.290515515228	371.335690747340	331.267770634087	1029.368335620105	236.388453777322	367.087596096534	1115.164979312342	383.285884871691	590.149101275422	1034.750831653016	290.372388685017	658.121435586642	1045.619820975204	194.430160464757	588.199278236814	881.644675405383	45.264500594865	571.399446473886	1054.981840712242	95.448107266295	596.000411040951	968.845595244459	37.759062674089	640.735596376097	1176.388976815758	41.096578263664	618.186346375503	861.055596654435	135.916595769998	421.241777031923	910.252090927690	113.644803619978	327.182501849684	1013.645508419780	136.929657610372	334.695815243955	1101.112152080385	46.224104968234	277.385746631101	865.093905324163	1077.042271972572	311.302570614605	834.874946106155	819.427781353890	344.029623255268	1214.654295731858	1086.811165236971	817.711160359017	1415.234413587244	939.588352847309	745.496836934412	
111	55.168571428571	870.151991634133	991.778387449176	611.948011064639	997.603325875653	1414.591662261774	378.011275325376	1139.357351437922	1348.379851467219	506.659773094599	1109.324500969655	1424.772892336561	695.981694732738	1021.252989768156	1479.437632982234	532.456094620270	1121.747337568221	925.282265395824	663.898271930964	1037.749503505940	948.090582773874	403.443574033518	1157.301812790609	727.661375661786	612.977735547091	1094.594845946505	609.855270678910	679.177638733525	1152.793525420912	566.308210854300	579.466667890691	1154.996817252916	470.376907059035	580.832261066937	1131.896663527306	773.026060855325	419.640014877069	1082.355396029594	645.164774663402	343.444690208462	1192.371610375853	585.347606869299	393.300794898800	1209.628965018020	501.072413435710	376.582557335889	1152.761385837564	431.026386861026	365.962585564447	1018.484704608587	365.521202919236	329.709850061648	1042.529196761379	231.583902191821	365.151936721012	1107.701620771343	384.381901378026	591.108428572123	1028.191564854556	290.722524875626	659.116767146009	1039.778160694296	195.051938291857	588.793414948814	876.948106131411	45.088215715564	571.495373059255	1050.303355173255	95.497669057035	596.279336396106	964.167035600931	37.661646579202	640.900072692726	1171.709279486526	41.215546759424	618.189743399814	881.389738682790	118.845945446002	417.933320428668	932.829876422117	101.242381972836	323.952434056398	1034.161257062107	131.809305315409	332.161869260279	1128.315755808065	48.471960007268	274.742114859642	854.914090182683	1082.728867762167	316.523725568267	820.084645956041	826.393649320931	354.132942791110	1228.845588203855	1093.625174006054	813.888664248783	1438.014885029873	964.361400505190	732.378739758393	
